PathFileType	4	(X/Y/Z)	C:/Users/opensim2020/Desktop/walking_exp_matlab/subject06_walking20_straight_01.trc	
DataRate	CameraRate	NumFrames	NumMarkers	Units	OrigDataRate	OrigDataStartFrame	OrigNumFrames	
100.00	100.00	4	43	mm	100.00	796	127	
Frame#	Time	LFHD			RFHD			LBHD			RBHD			C7			T10			CLAV			STRN			RBAK			LSHO			LUPA			LELB			LFRM			LWRA			LWRB			LFIN			RSHO			RUPA			RELB			RFRM			RWRA			RWRB			RFIN			LASI			RASI			LPSI			RPSI			LTHI			LKNE			LTIB			LANK			LHEE			LTOE			RTHI			RKNE			RTIB			RANK			RHEE			RTOE			*39			*40			*41			*42			
		X1	Y1	Z1	X2	Y2	Z2	X3	Y3	Z3	X4	Y4	Z4	X5	Y5	Z5	X6	Y6	Z6	X7	Y7	Z7	X8	Y8	Z8	X9	Y9	Z9	X10	Y10	Z10	X11	Y11	Z11	X12	Y12	Z12	X13	Y13	Z13	X14	Y14	Z14	X15	Y15	Z15	X16	Y16	Z16	X17	Y17	Z17	X18	Y18	Z18	X19	Y19	Z19	X20	Y20	Z20	X21	Y21	Z21	X22	Y22	Z22	X23	Y23	Z23	X24	Y24	Z24	X25	Y25	Z25	X26	Y26	Z26	X27	Y27	Z27	X28	Y28	Z28	X29	Y29	Z29	X30	Y30	Z30	X31	Y31	Z31	X32	Y32	Z32	X33	Y33	Z33	X34	Y34	Z34	X35	Y35	Z35	X36	Y36	Z36	X37	Y37	Z37	X38	Y38	Z38	X39	Y39	Z39	X40	Y40	Z40	X41	Y41	Z41	X42	Y42	Z42	X43	Y43	Z43	

64	0.630	-1087.77783	-73.98082	1663.96667	-956.94775	-82.60685	1649.33569	-1099.25818	-205.21185	1608.23047	-970.66583	-212.67902	1598.32581	-1045.80981	-207.95499	1451.29382	-1028.15930	-252.16229	1125.40686	-1036.13269	-100.64553	1370.66907	-1037.05701	-66.25972	1194.84729	-967.64142	-291.60046	1286.80115	-1201.36218	-143.53175	1402.10095	-1275.38965	-157.74348	1201.53687	-1290.72546	-173.53064	1090.14771	-1315.06580	-151.56323	941.58594	-1270.79883	-97.04595	824.30292	-1315.46790	-152.90492	822.92743	-1314.20007	-114.76566	740.42908	-879.27026	-156.30783	1408.20190	-787.82391	-224.58902	1222.03015	-771.62213	-230.84297	1099.52795	-753.15295	-222.20239	979.53674	-784.76794	-168.06268	838.35724	-744.21802	-222.09700	842.09869	-741.51221	-187.89157	765.41296	-1129.14636	-74.92275	962.72156	-909.51733	-84.35387	966.40118	-1104.88806	-232.36638	992.84222	-937.63348	-232.37399	990.39746	-1184.30286	-127.64315	647.68268	-1154.93921	-114.77831	485.95203	-1147.96045	-178.14632	234.80275	-1100.69653	-206.33281	65.74324	-1058.57886	-253.11292	54.93907	-1087.13879	-64.20000	34.14778	-855.31641	-71.55471	635.55457	-877.55078	-28.75392	517.23004	-882.60529	-173.84178	303.75821	-924.64795	-284.29059	154.10269	-971.87518	-329.14603	148.26518	-914.39789	-169.52266	52.85886	-1034.85828	-178.20901	1699.27954	-1032.91833	-53.46744	1564.58313						 
65	0.640	-1087.13086	-60.18898	1664.16223	-956.49365	-69.26191	1649.13269	-1099.28259	-191.47462	1608.54382	-970.71112	-199.35826	1598.28442	-1046.13062	-194.43199	1451.32617	-1028.51318	-238.58649	1125.34668	-1036.29480	-87.27541	1370.73218	-1037.62476	-52.82183	1194.92114	-968.51886	-278.19830	1286.74048	-1201.57837	-130.09041	1402.13171	-1276.05981	-140.73360	1201.34949	-1292.07813	-153.88913	1089.65149	-1315.94104	-126.61196	941.85858	-1270.69421	-68.22221	826.68793	-1315.89966	-123.21670	823.27277	-1314.30444	-81.43497	742.61725	-879.43793	-143.21725	1408.03833	-788.80475	-213.37573	1222.17993	-772.85651	-220.84181	1099.65979	-754.21118	-214.91130	979.46771	-785.13983	-164.20419	836.79547	-744.97284	-218.41724	841.99408	-741.98553	-186.20442	764.38507	-1130.44104	-62.13642	962.21942	-910.73425	-70.08176	966.82867	-1104.66138	-219.57584	992.99084	-937.29736	-218.31644	990.85321	-1184.29810	-119.10257	647.39392	-1155.64905	-109.37931	485.24683	-1148.22388	-175.49164	234.70837	-1100.71045	-205.94559	65.98387	-1058.47961	-252.95358	55.69465	-1087.43225	-64.12630	34.09264	-855.18628	-52.91325	637.77325	-878.14838	-8.58872	520.38422	-883.16534	-144.40410	299.91388	-925.42999	-246.14049	144.34435	-973.05994	-290.51187	135.54678	-913.90393	-125.37299	51.06057	-1034.50854	-164.64488	1699.41235									 
66	0.650	-1086.58057	-46.46986	1663.86938	-955.98895	-55.99770	1648.68945	-1099.24438	-177.76678	1608.55054	-970.68781	-186.05731	1598.01685	-1046.38428	-181.07491	1451.11536	-1028.73865	-225.05009	1125.12012	-1036.39941	-73.90231	1370.51990	-1038.06653	-39.40489	1194.75122	-969.29205	-264.86526	1286.40161	-1201.87305	-116.70836	1401.95911	-1276.67627	-123.96635	1201.03027	-1293.32825	-134.58334	1089.10681	-1316.75500	-101.74123	942.31915	-1270.75916	-38.95121	829.81158	-1316.00769	-93.49783	823.82373	-1314.24915	-48.06052	745.39514	-879.52374	-130.16875	1407.60095	-789.71930	-201.81569	1222.04480	-774.03101	-210.60110	1099.58972	-755.23138	-207.35051	979.26447	-785.40851	-159.96648	835.23822	-745.66321	-214.37883	841.75623	-742.49689	-184.15390	763.41925	-1131.55176	-49.48405	961.56555	-911.74567	-56.03734	966.89612	-1104.36682	-206.65625	992.90863	-936.92712	-204.27899	991.03772	-1184.49731	-110.66856	646.93024	-1156.01611	-103.79440	484.35849	-1148.46912	-172.74686	234.58739	-1100.67761	-205.48241	66.29692	-1058.87488	-251.51888	55.84370	-1087.69238	-64.07700	33.96296	-855.02576	-34.64302	639.71741	-878.52734	11.23933	523.01117	-883.77496	-114.88277	295.87662	-926.16669	-207.30069	134.60884	-973.97864	-250.76752	122.88834	-913.73108	-81.17502	49.39581	-1034.26257	-151.08578	1699.17444	-1029.47412	-20.60567	1564.83728						 
67	0.660	-1086.22827	-32.87948	1663.16028	-955.60529	-42.57357	1648.08606	-1099.20459	-164.04523	1608.22742	-970.65723	-172.72162	1597.47461	-1046.58484	-167.65889	1450.60071	-1028.79944	-211.53703	1124.60571	-1036.48828	-60.53880	1370.02539	-1038.52014	-26.08057	1194.28027	-969.96735	-251.63275	1285.76733	-1201.89612	-103.46397	1401.42908	-1277.29944	-107.43768	1200.67883	-1294.48254	-115.42475	1088.49963	-1317.47046	-76.97208	942.92682	-1270.73267	-9.81863	833.42822	-1316.16467	-64.02119	824.86346	-1314.12610	-14.99129	748.75714	-879.62549	-117.05592	1406.96924	-790.28174	-190.15614	1221.74597	-775.08209	-200.27216	1099.32849	-756.18121	-199.60767	978.92456	-785.66956	-155.57112	833.66492	-746.36920	-209.70898	841.77277	-742.88599	-181.98126	762.37451	-1132.44275	-36.98833	960.59613	-912.79614	-41.75626	966.72424	-1103.99402	-193.90955	992.60828	-936.54901	-190.24394	990.92932	-1184.18225	-101.11311	646.25281	-1156.16711	-97.56456	483.33102	-1148.58276	-170.11755	234.50919	-1100.58313	-204.98772	66.67218	-1058.69666	-251.13153	56.52972	-1087.77771	-63.88881	33.76088	-854.75000	-16.81445	641.38489	-879.12744	30.46861	525.32446	-884.16528	-85.13000	291.85388	-926.77277	-167.89017	125.07511	-974.78156	-210.40277	110.96255	-913.66797	-36.88607	48.05151	-1034.03674	-137.49713	1698.75952									 
